<svg width="200" height="48" viewBox="0 0 600 144" fill="none" xmlns="http://www.w3.org/2000/svg">
  <defs>
    <linearGradient id="shieldGrad" x1="0%" y1="0%" x2="100%" y2="100%">
      <stop offset="0%" style="stop-color:#5dd3c0;stop-opacity:1" />
      <stop offset="100%" style="stop-color:#0d9488;stop-opacity:1" />
    </linearGradient>
    <linearGradient id="glowGrad" x1="0%" y1="0%" x2="0%" y2="100%">
      <stop offset="0%" style="stop-color:#5dd3c0;stop-opacity:0.3" />
      <stop offset="100%" style="stop-color:#5dd3c0;stop-opacity:0" />
    </linearGradient>
  </defs>

  <!-- Shield icon -->
  <path d="M60 12 L18 30 L18 66 C18 90 37 112 60 120 C83 112 102 90 102 66 L102 30 Z"
        fill="url(#shieldGrad)" />
  <!-- Inner shield glow -->
  <path d="M60 18 L24 33 L24 66 C24 87 41 107 60 114 C79 107 96 87 96 66 L96 33 Z"
        fill="url(#glowGrad)" />
  <!-- Lock body -->
  <rect x="45" y="62" width="30" height="22" rx="4" fill="white" opacity="0.92"/>
  <!-- Lock shackle -->
  <path d="M50 62 L50 54 C50 47 70 47 70 54 L70 62" stroke="white" stroke-width="5" stroke-linecap="round" fill="none" opacity="0.92"/>
  <!-- Lock keyhole -->
  <circle cx="60" cy="71" r="4" fill="#14b8a6"/>
  <rect x="58" y="71" width="4" height="7" rx="1" fill="#14b8a6"/>

  <!-- Text: Atharix -->
  <text x="126" y="82" font-family="'Inter', 'Segoe UI', Arial, sans-serif" font-size="64" font-weight="700" letter-spacing="-2" fill="#e2e8f0">
    atharix
  </text>
</svg>
